<!DOCTYPE svg PUBLIC "-//W3C//DTD SVG 20010904//EN" "http://www.w3.org/TR/2001/REC-SVG-20010904/DTD/svg10.dtd">
<svg version="1.0" xmlns="http://www.w3.org/2000/svg" width="446px" height="446px" viewBox="0 0 4460 4460" preserveAspectRatio="xMidYMid meet">
<g id="layer101" fill="#a1859e" style="fill: var(--bg-color, #a1859e)" stroke="none">
 <path d="M2075 4453 c-439 -29 -888 -206 -1240 -488 -255 -204 -459 -460 -606 -760 -106 -217 -168 -417 -206 -665 -23 -156 -24 -462 0 -620 91 -599 397 -1117 872 -1475 250 -188 583 -336 895 -400 726 -146 1492 85 2015 610 343 344 555 769 631 1265 25 157 25 462 1 620 -76 492 -291 922 -633 1264 -453 454 -1088 692 -1729 649z"/>
 </g>
<g id="layer102" fill="#ffffff" stroke="none">
 <path d="M1555 3469 c-338 -52 -556 -210 -581 -420 -21 -178 114 -385 322 -491 104 -54 211 -86 325 -98 44 -4 82 -9 84 -12 2 -2 -3 -26 -11 -53 -9 -30 -13 -69 -10 -96 l5 -45 -92 -17 c-132 -25 -224 -72 -311 -161 -113 -113 -160 -226 -159 -386 0 -106 20 -174 78 -265 87 -137 251 -248 427 -290 50 -12 144 -15 470 -15 446 0 443 0 436 59 -5 40 -169 161 -220 161 l-37 0 39 72 c64 120 85 266 55 383 -32 123 -85 194 -258 352 -50 44 -57 56 -57 88 0 30 9 46 53 92 28 30 84 80 123 109 117 88 182 170 219 274 22 62 34 193 24 272 -26 216 -212 397 -484 469 -92 24 -337 35 -440 18z m361 -230 c82 -15 177 -62 214 -107 36 -43 60 -117 60 -181 -1 -92 -50 -155 -198 -255 l-73 -50 -117 -4 c-106 -4 -124 -2 -196 22 -170 57 -266 159 -266 281 0 121 102 239 246 285 69 22 234 27 330 9z m-16 -1199 c82 -42 123 -129 123 -265 1 -107 -24 -192 -82 -282 -44 -69 -88 -108 -156 -139 -235 -110 -388 191 -245 483 88 178 240 264 360 203z"/>
 <path d="M2939 2733 c-11 -12 -15 -66 -17 -225 l-3 -208 -208 0 c-181 0 -210 -2 -222 -16 -8 -10 -15 -48 -17 -90 -4 -67 -2 -75 21 -98 l26 -26 200 0 200 0 3 -206 c3 -202 3 -206 27 -225 30 -25 145 -27 179 -3 22 15 22 19 22 225 l0 209 203 0 c254 0 247 -3 247 115 0 63 -4 88 -16 99 -13 14 -48 16 -225 16 l-209 0 0 209 c0 177 -2 212 -16 225 -23 23 -176 23 -195 -1z"/>
 </g>

</svg>