<!DOCTYPE svg PUBLIC "-//W3C//DTD SVG 20010904//EN" "http://www.w3.org/TR/2001/REC-SVG-20010904/DTD/svg10.dtd">
<svg version="1.0" xmlns="http://www.w3.org/2000/svg" width="512px" height="512px" viewBox="0 0 5120 5120" preserveAspectRatio="xMidYMid meet">
<g id="layer101" fill="#a1859e" style="fill: var(--bg-color, #a1859e)" stroke="none">
 <path d="M2235 5105 c-462 -60 -888 -238 -1255 -524 -119 -92 -317 -287 -413 -406 -313 -389 -505 -851 -558 -1342 -18 -171 -7 -546 21 -702 126 -714 532 -1330 1135 -1724 324 -211 689 -344 1085 -393 152 -19 472 -18 630 1 748 93 1416 512 1833 1150 210 321 344 690 392 1075 20 162 20 478 0 640 -144 1160 -1065 2081 -2225 2225 -152 18 -501 18 -645 0z"/>
 </g>
<g id="layer102" fill="#ffffff" stroke="none">
 <path d="M1190 2930 l0 -940 315 0 315 0 0 940 0 940 -315 0 -315 0 0 -940z"/>
 <path d="M2160 2930 l0 -940 315 0 315 0 1 128 c0 121 1 126 16 102 35 -54 161 -167 220 -198 90 -48 197 -72 315 -72 358 0 602 192 692 545 30 120 36 256 36 815 l0 560 -314 0 -315 0 -4 -567 c-4 -606 -4 -609 -55 -709 -27 -53 -100 -117 -150 -132 -22 -7 -73 -12 -113 -12 -61 0 -85 5 -134 29 -68 32 -129 94 -167 169 l-23 47 -3 588 -3 587 -314 0 -315 0 0 -940z"/>
 <path d="M1374 1720 c-178 -57 -270 -263 -194 -437 26 -60 94 -128 159 -160 51 -25 66 -28 166 -28 93 0 118 4 158 22 80 37 123 78 159 151 29 59 33 76 33 147 -1 105 -27 167 -102 235 -93 86 -242 113 -379 70z"/>
 </g>

</svg>