<!DOCTYPE svg PUBLIC "-//W3C//DTD SVG 20010904//EN" "http://www.w3.org/TR/2001/REC-SVG-20010904/DTD/svg10.dtd">
<svg version="1.0" xmlns="http://www.w3.org/2000/svg" width="512px" height="512px" viewBox="0 0 5120 5120" preserveAspectRatio="xMidYMid meet">
<g id="layer101" fill="#a1859e" style="fill: var(--bg-color, #a1859e)" stroke="none">
 <path d="M2235 5105 c-462 -60 -888 -238 -1255 -524 -119 -92 -317 -287 -413 -406 -313 -389 -505 -851 -558 -1342 -18 -171 -7 -546 21 -702 126 -714 532 -1330 1135 -1724 324 -211 689 -344 1085 -393 152 -19 472 -18 630 1 748 93 1416 512 1833 1150 210 321 344 690 392 1075 20 162 20 478 0 640 -144 1160 -1065 2081 -2225 2225 -152 18 -501 18 -645 0z"/>
 </g>
<g id="layer102" fill="#ffffff" stroke="none">
 <path d="M1945 3743 c-172 -14 -346 -54 -499 -114 -111 -44 -258 -120 -263 -136 -3 -7 52 -12 154 -16 174 -5 285 -28 421 -85 73 -31 187 -96 230 -130 l24 -18 -84 -17 c-119 -23 -217 -76 -303 -162 -63 -63 -121 -151 -139 -212 -7 -21 -5 -21 97 -21 58 0 113 -5 123 -11 18 -10 18 -10 -2 -11 -12 0 -59 -19 -105 -42 -101 -50 -207 -151 -257 -245 -47 -90 -92 -283 -65 -283 3 0 34 11 68 25 34 13 87 27 118 31 l55 7 -72 -75 c-77 -78 -132 -174 -156 -273 -15 -64 -15 -207 1 -270 13 -54 54 -155 63 -155 3 0 56 51 118 113 62 61 156 142 208 180 234 166 538 281 798 303 l82 7 -7 -80 c-8 -104 9 -198 53 -292 99 -214 302 -345 534 -345 145 0 267 44 382 138 l56 46 88 -26 c48 -14 127 -43 176 -66 49 -23 91 -38 94 -35 3 3 -8 35 -26 70 -35 71 -112 164 -174 208 -21 16 -35 29 -30 29 27 -1 187 -41 237 -60 32 -12 61 -19 64 -16 11 10 -68 104 -162 195 -53 50 -99 91 -104 91 -4 0 -11 69 -14 153 -10 249 -64 457 -182 692 -88 175 -176 297 -320 440 -277 279 -605 428 -1015 465 -111 9 -180 10 -265 3z"/>
 </g>

</svg>