<!DOCTYPE svg PUBLIC "-//W3C//DTD SVG 20010904//EN" "http://www.w3.org/TR/2001/REC-SVG-20010904/DTD/svg10.dtd">
<svg version="1.0" xmlns="http://www.w3.org/2000/svg" width="168px" height="168px" viewBox="0 0 1680 1680" preserveAspectRatio="xMidYMid meet">

<g fill="#5b4b59" style="fill: var(--face-color, #5b4b59)" stroke="none">
 <path d="M640 1639 c-297 -77 -524 -305 -600 -603 -28 -109 -28 -283 0 -392 63 -245 223 -441 451 -549 218 -103 480 -103 698 0 181 86 310 216 396 398 103 216 102 479 0 696 -108 228 -304 388 -549 451 -107 27 -290 27 -396 -1z"/>
 </g>

<g fill="#a1859e" style="fill: var(--circle-color, #a1859e)" stroke="none">
 <path d="M640 1639 c-297 -77 -524 -305 -600 -603 -28 -109 -28 -283 0 -392 63 -245 223 -441 451 -549 218 -103 480 -103 698 0 181 86 310 216 396 398 103 216 102 479 0 696 -108 228 -304 388 -549 451 -107 27 -290 27 -396 -1z m290 -59 c82 -11 180 -40 250 -75 61 -31 172 -114 166 -124 -3 -4 -40 -14 -83 -20 -103 -16 -177 -50 -203 -93 -15 -25 -20 -50 -20 -107 0 -72 0 -74 44 -122 24 -26 53 -68 64 -93 12 -24 30 -47 40 -50 34 -11 64 -53 69 -98 7 -59 -12 -124 -37 -131 -19 -5 -20 -14 -20 -144 -1 -224 -18 -260 -130 -268 -57 -5 -68 -9 -101 -41 -20 -19 -44 -36 -55 -36 -31 -2 -158 24 -172 35 -7 6 -36 12 -64 14 -66 4 -107 29 -138 84 -23 41 -25 56 -28 195 -4 147 -4 152 -27 162 -35 16 -41 80 -19 189 2 13 18 30 34 38 16 8 38 32 49 53 20 39 96 122 112 122 5 0 9 35 9 79 0 64 -4 84 -23 112 -30 45 -92 74 -211 99 -55 11 -101 22 -104 24 -6 7 117 95 168 121 67 33 170 65 242 74 88 12 103 12 188 1z"/>
 </g>

<g fill="#fdfdfd" stroke="none">
 <path d="M676 1593 c-293 -62 -529 -301 -590 -595 -99 -479 266 -928 754 -928 488 0 853 449 754 928 -61 298 -298 535 -596 596 -95 20 -230 19 -322 -1z m349 -26 c79 -23 152 -54 213 -93 58 -37 112 -82 112 -95 0 -3 -41 -14 -91 -23 -101 -19 -151 -40 -189 -81 -23 -24 -25 -34 -23 -106 2 -76 4 -81 42 -127 21 -26 48 -66 60 -88 11 -23 36 -52 56 -64 46 -28 55 -47 55 -114 0 -65 -14 -106 -38 -112 -15 -5 -17 -21 -18 -149 -1 -217 -27 -265 -142 -265 -39 0 -53 -5 -73 -26 -44 -47 -73 -57 -137 -44 -31 6 -77 18 -102 25 -25 8 -67 17 -95 21 -39 5 -57 13 -86 43 -49 49 -61 98 -64 255 -2 121 -3 130 -23 137 -27 10 -37 61 -28 142 6 60 23 92 55 102 9 2 27 26 41 51 13 26 46 65 72 88 47 41 48 42 48 101 -1 91 -25 136 -92 169 -29 14 -89 33 -133 41 -122 23 -120 23 -98 47 52 59 221 146 325 167 29 6 62 13 73 15 37 9 230 -3 280 -17z"/>
 </g>

</svg>